PathFileType	4	(X/Y/Z)	28_2_60_p1_0-302.trc
DataRate	CameraRate	NumFrames	NumMarkers	Units	OrigDataRate	OrigDataStartFrame	OrigNumFrames
55.0	55.0	6	27	m	55.0	151	303
Frame#	Time	RHip			RKnee			RAnkle			RBigToe			RSmallToe			RHeel			LHip			LKnee			LAnkle			LBigToe			LSmallToe			LHeel			Neck			Head			Nose			RShoulder			RElbow			RWrist			RThumb			RIndex			RPinky			LShoulder			LElbow			LWrist			LThumb			LIndex			LPinky			
		X1	Y1	Z1	X2	Y2	Z2	X3	Y3	Z3	X4	Y4	Z4	X5	Y5	Z5	X6	Y6	Z6	X7	Y7	Z7	X8	Y8	Z8	X9	Y9	Z9	X10	Y10	Z10	X11	Y11	Z11	X12	Y12	Z12	X13	Y13	Z13	X14	Y14	Z14	X15	Y15	Z15	X16	Y16	Z16	X17	Y17	Z17	X18	Y18	Z18	X19	Y19	Z19	X20	Y20	Z20	X21	Y21	Z21	X22	Y22	Z22	X23	Y23	Z23	X24	Y24	Z24	X25	Y25	Z25	X26	Y26	Z26	X27	Y27	Z27	
151	2.7454545454545456	0.2151171095680234	0.6239758469983612	0.9141925543222398	0.22265385251942288	0.8500383290014033	1.3164452279223506	0.2212804071513602	1.0563442974689532	1.7137257429728108	0.16481174091954762	0.8550999053049035	1.784536078128067	0.24642193754927	0.8950369833220103	1.788868642040192	0.20195220752990747	1.1841902565006175	1.76672226994523	-0.01732139439603114	0.6242508324439564	0.9267142156437336	-0.0020848089386766044	0.8508010786267116	1.3332685449918573	0.020641460487631505	1.0519333279008254	1.7136986575870896	0.01537512607735955	0.8740387740029658	1.7848358933460908	-0.037150430033413395	0.9352184442495627	1.7788727449241706	0.06225963817956156	1.1767690526012495	1.7802689310173108	0.07868114821573181	0.4043308858655084	0.3023146294952021	0.06857209078247693	0.2739852546111675	0.09194898886427631	0.07117513289200576	0.205059300451099	0.2529386186088398	0.24955106301445182	0.47831829959074695	0.35629641738828965	0.4268199229870625	0.5055235187618238	0.5954385687572077	0.3994958647521902	0.28521810945289006	0.527797193581064	0.32012289336542377	0.14640759317419855	0.46139792056288564	0.3254767345814896	0.15010990296574261	0.4714377435533842	0.33460614121996807	0.1546737319977405	0.5492697738774297	-0.09658331732074549	0.44918732996849464	0.3863733790440276	-0.20282158960496247	0.6565189317638362	0.6131875543831201	-0.21240669118977573	0.3723085145028559	0.6466703344452458	-0.16190156081350315	0.2968157018647511	0.6298469194775443	-0.16473513628250597	0.2142734406646304	0.6414178137665083	-0.19710717321384913	0.24087826711971627	0.6932311192881985
152	2.7636363636363637	0.21486723429655089	0.6253225516641623	0.9183005928033061	0.22266981668252844	0.8509331738092589	1.3167964471869158	0.2212589533607978	1.0562815965749177	1.7137844726344351	0.16362068052054976	0.8512218267680632	1.78056855822657	0.23753966902596635	0.8796849575738531	1.7857997392682503	0.20340646975778992	1.1880475260055254	1.7728943714021137	-0.021780660558732016	0.6384793432821336	0.926086502605172	-0.0020898944707452667	0.8511042106800387	1.3333095249026643	0.020661398435944056	1.052262598033808	1.7138561951467948	0.01545170391549361	0.8739459761839334	1.784884741930133	-0.03789254751723835	0.9377078256357229	1.7831051951343513	0.06312163043353773	1.1799464844797993	1.7809339274578169	0.07573202237523248	0.4176377790279171	0.30243582257534635	0.06858587223009774	0.2745577782364508	0.0918683991528492	0.07115402415155074	0.20501777879684166	0.25300811348494007	0.24236437268342192	0.45863111599752665	0.3655898837091228	0.4268568857027141	0.5044315985793386	0.5915261357498977	0.37526356819716306	0.26374291911477965	0.5406716231415771	0.2982253695217137	0.15586930096617163	0.49332096518875534	0.2915404496082047	0.11472979316564147	0.5200393553625842	0.33315551566813445	0.09822117503738328	0.5812723757145006	-0.09933597223037921	0.43779372343993467	0.389567625842539	-0.20314085388823114	0.6563021149916409	0.6131918322257799	-0.217405438740347	0.37923845051364985	0.6355828464373242	-0.17431023210292224	0.2901774205620073	0.6164275357104283	-0.16439757448405312	0.21263613740554488	0.6323949436773905	-0.18893014380997278	0.26337073511126696	0.685062209725186
153	2.7818181818181817	0.215413218558196	0.6277423743025264	0.9183329546594505	0.2239746248868816	0.8540874899592871	1.3208702716223484	0.2215911011318104	1.0561819103811314	1.7178717161366641	0.16378722338783522	0.852387270202508	1.7809457585790829	0.24663364676668403	0.8954540547481092	1.788913338112497	0.2033655228501033	1.1881641630329458	1.7726569137839174	-0.021305884320469804	0.6409291364824279	0.9261488493072089	-0.0020919888628232147	0.8512158906727794	1.333323940648006	0.019743330547973215	1.0543970816107977	1.7186344161502998	0.014543122794330753	0.8761092723466037	1.788973046454638	-0.03770539128035569	0.9371098067363152	1.7871498014861646	0.06290138012215674	1.1782051954755326	1.7804302003613597	0.078933120322094	0.40530082675210505	0.305764822929085	0.06845547465388194	0.2744720569797717	0.09190843941039391	0.07111887806476815	0.2050762561587795	0.2530019791466911	0.2488511301366362	0.45542820818951973	0.3655885726046725	0.4316814724415603	0.5042622753310022	0.5914534763331456	0.3753444872199058	0.2667617849700999	0.5564887981438095	0.28070611529958966	0.1316178996487209	0.5300356466394734	0.27340522186179284	0.09147285082105015	0.5463495849922507	0.32495695251699575	0.07487105747156815	0.6125622606951349	-0.0994005606152091	0.4372815070618671	0.3897317130611976	-0.19894229833774552	0.6398202838441897	0.6160629819244275	-0.2188392579311202	0.3710634320845511	0.6184916077023267	-0.17483651206401915	0.2619070588050608	0.6090507268841674	-0.16646360187383463	0.19924248672196873	0.6262684011892617	-0.1934784839462366	0.2418928703577883	0.6884447540896625
154	2.8	0.21659663648945518	0.6277053581667396	0.921784236216477	0.2237977487530937	0.8542118849779329	1.3209314250260789	0.22162766999844308	1.0562514599607764	1.7177702622710864	0.16835593234622265	0.8673604317430632	1.78712830928063	0.24139210662051458	0.8923149937086337	1.7886523199182558	0.20195544007323982	1.1843028652859704	1.7667106219814135	-0.017130905428797034	0.6553818534691014	0.9325655607707252	-0.002088602283503687	0.8510814794047156	1.3333249283210415	0.01958539063614479	1.0543437690129542	1.7186486832849892	0.014573341289396129	0.8759734865040282	1.7889062210683855	-0.037988580929775945	0.9373098717556918	1.7832537718418573	0.06245336799961461	1.177122789053899	1.7802582223212517	0.0753742402317362	0.4163124159945729	0.30283064386334657	0.06837703203284999	0.27419225680906545	0.09193174892515273	0.0711618958596527	0.2051639652596706	0.2529740533622804	0.2541246661108743	0.45897938628647533	0.3678085640178712	0.4309345110537952	0.5006419736878964	0.5848572417214154	0.3688745372176354	0.2717160665709606	0.5698124968884558	0.27222740489585445	0.12451279391346522	0.5724662061179364	0.27318269966587566	0.10107340517123824	0.575649987991783	0.31525515853789354	0.06613534199322602	0.6406463970605039	-0.0966604273007859	0.451273330811724	0.3928264797801363	-0.19825121920169844	0.6258224774357232	0.6215632999979013	-0.22340024163861363	0.38419240295861284	0.6196373078412248	-0.1833092971414047	0.2720721964530756	0.6034674671762492	-0.17112855390751922	0.2071306549230451	0.6159671747462427	-0.193106141259763	0.2706900263065674	0.6773254058945306
155	2.8181818181818183	0.2166322981825257	0.6274955249586573	0.9217079740546987	0.22383041884617508	0.8538200728462436	1.3207325474027731	0.22029742973894176	1.0525765244432732	1.7126784323474582	0.16823771943811774	0.8671482392521224	1.7871246784221242	0.2412109983163345	0.8920870224881621	1.7887080139240807	0.20193026880211165	1.1841134182671207	1.7666339064254835	-0.017176261079919604	0.6554446997027035	0.9327766431439148	-0.002087765692633322	0.8508178671157675	1.3333036255099588	0.019525414410005635	1.0540515270251147	1.718564577362307	0.01454017792758192	0.875977084118307	1.7889092562364235	-0.03807936019524749	0.9371339533712271	1.7832588411952117	0.06218166992117455	1.175997893165781	1.780065050621652	0.07857000512604392	0.40419021277444384	0.3060254748176999	0.06839627133796364	0.27451307948171305	0.09187303221864974	0.07459791342127549	0.21503022333228128	0.24946509840737843	0.258033427413223	0.46992904957503245	0.3647446874048794	0.4315570971215897	0.5032477456013711	0.5914210124418784	0.3669034282947107	0.25235178608321057	0.5829992139801641	0.2676840578225193	0.1142528938605858	0.5859799600082747	0.2675893524070424	0.10590054439488154	0.5925326121421852	0.2931771981030477	0.10515446242880679	0.6558513347253024	-0.09644019767736889	0.45105031927827755	0.3893369189608743	-0.18684152834184425	0.599764370784683	0.6291177253695952	-0.21290000338315143	0.38718758312552104	0.6218234057805431	-0.1795679890376981	0.26892598310151555	0.5970301221144922	-0.17556445387393355	0.2043375365445677	0.6119507609473314	-0.19288396063240876	0.25803314543285016	0.6753946637922654
156	2.8363636363636364	0.21743760346500346	0.6297614627319079	0.9213759802511735	0.2242481004035836	0.854437119495029	1.3206881338054361	0.22575991736885412	1.0571500120300423	1.7134983228599052	0.16919690948970265	0.8656673234485374	1.7825642945250468	0.24656833645520404	0.8949595585941295	1.7889185607568487	0.20199407116946003	1.18395232099635	1.7665677793240724	-0.012190375524987284	0.6428491577458628	0.9333151037169803	-0.0023242164298018725	0.8508860944656009	1.329342742221295	0.02061067218996325	1.0524242619529431	1.713878856457871	0.015559417067181272	0.8738403410263745	1.7849771339320486	-0.037506464169045454	0.9363345169564025	1.787100325226562	0.06137106181519346	1.174993031398262	1.7801831404096742	0.075272430390911	0.4152863263083251	0.2997193287125045	0.06823060890023636	0.2748644533025763	0.09186315325750902	0.071167249842099	0.2052100974873334	0.2529430745953735	0.2586711399633664	0.47283882434344926	0.36715566028066815	0.4290481309328474	0.49988765762107734	0.5808110159074845	0.35448129202353906	0.2346229309559785	0.5924936299954627	0.26130900549383385	0.11028225976217228	0.6075217981878176	0.2626394701904478	0.10595521967617096	0.631035606994197	0.31346752226408425	0.13388110482753074	0.6601695453738528	-0.10011598965684773	0.4526163535571911	0.3960883444343422	-0.1842507579029268	0.6116986910257652	0.6306912032362454	-0.2151848190021876	0.4070157370592259	0.6109501250446914	-0.17094668239758884	0.26636500930651524	0.5864242315578089	-0.18022797707454416	0.2103682966600812	0.6006151698426964	-0.19606168909997204	0.25756437343965	0.650615461118724
